<svg xmlns="http://www.w3.org/2000/svg" viewBox="0 0 19.42 33.88"><defs><style>.cls-1{fill:#fff;}</style></defs><title>Asset 8</title><g id="Layer_2" data-name="Layer 2"><g id="Layer_1-2" data-name="Layer 1"><path class="cls-1" d="M.06,23.91h0a1,1,0,0,1,1.67-.37l6,6a.41.41,0,0,0,.71-.3V22a1,1,0,0,1,1-1h.46a1,1,0,0,1,1,1v7.24a.41.41,0,0,0,.71.3l6-6a1,1,0,0,1,1.67.37h0A1,1,0,0,1,19.12,25l-8.7,8.62a1,1,0,0,1-1.42,0L.3,25A1,1,0,0,1,.06,23.91Z"/><path class="cls-1" d="M19.36,10h0a1,1,0,0,1-1.67.37l-6-6a.41.41,0,0,0-.71.3v7.23a1,1,0,0,1-1,1H9.48a1,1,0,0,1-1-1V4.63a.41.41,0,0,0-.71-.3l-6,6A1,1,0,0,1,.06,10h0A1,1,0,0,1,.3,8.91L9,.29a1,1,0,0,1,1.42,0l8.7,8.62A1,1,0,0,1,19.36,10Z"/></g></g></svg>