<svg xmlns="http://www.w3.org/2000/svg" viewBox="0 0 195.39 182.89"><defs><style>.cls-1{fill:#020202;}.cls-2{fill:#fff;}</style></defs><title>Asset 1</title><g id="Layer_2" data-name="Layer 2"><g id="Layer_1-2" data-name="Layer 1"><path class="cls-1" d="M37.21,148.2c.08-.67-.22,0-.6.92A1.55,1.55,0,0,0,37.21,148.2Z" transform="translate(-1 -1)"/><path class="cls-2" d="M37.19,147.92a4,4,0,0,0-.58,1.2,1.55,1.55,0,0,0,.6-.92c0-.19,0-.28,0-.28Z" transform="translate(-1 -1)"/><path class="cls-1" d="M7.15,182.84c2.6-6.57,2.58-6.6,2.25-7.08l-.29-.44H8.57a1.09,1.09,0,0,0-1,.74h0s-.48.61-3.84.61l-1,0a1.85,1.85,0,0,0-.7-2.07,17.09,17.09,0,0,1,3.39-3.85l.08-.08c3.34-3.77,20-22.85,19-27.9-.84-4.62,2.08-25.13,2.11-25.34.08-1.09,1.68-25.09,1.14-28.5-.49-3.13.78-9.69.79-9.76l.4-2-1.84.95c-1.37.72-3.93,1.85-5,1.85h-.1a1.53,1.53,0,0,1-.62-.21l.16-3.62-2,3.24-1,1.54h-.23c-.21,0-.44,0-.69-.05s-.75-.06-1.17-.06A5.68,5.68,0,0,0,13,82c-.54.41-2.07,1.1-6.28,1.1-2.21,0-4.08-.2-4.1-.2-.37-.06-.42-.18-.44-.22-.28-.7.64-3,2.95-5.95C6.3,75.11,13.67,67,16,64.74c1.47-1.38,5.52-3.25,9.43-5.06,1.94-.9,3.94-1.82,5.75-2.74a46.4,46.4,0,0,1,19.68-4.61c.68,0,1.36,0,2,.06,6.36.36,9.76,4,12.25,6.61.49.52.94,1,1.37,1.4a4.93,4.93,0,0,0,3.38,1.67,5.08,5.08,0,0,0,1.55-.3,4.91,4.91,0,0,1,.62-.17,17,17,0,0,1,1.17,3.65c.5,2.06.71,2.92,1.51,3.16l.15,0h.18a1.2,1.2,0,0,0,.88-.41c1-1.06,1.13-5.62,1-6.58s.74-3.16,2.08-5.58c.58-1,.92-3.43,1.4-7.23A41.94,41.94,0,0,1,81.41,43c.16-.45.33-.52.69-.52a5.09,5.09,0,0,1,1.1.17,5.78,5.78,0,0,0,1.19.17,1.75,1.75,0,0,0,1-.3,2.39,2.39,0,0,0,.84-1.71,2,2,0,0,1,.14-.57h0a.84.84,0,0,1,.36,0,1.55,1.55,0,0,1,1.58.89l.11.29.27.2a19.81,19.81,0,0,0,10.06,3.74,7.73,7.73,0,0,1,1,.14,17.92,17.92,0,0,1,1.35,6.71c-.25,1.55,1.83,8.16,3.73,10.38a2.44,2.44,0,0,0,1.81,1l.3,0c1.59-.3,2.8-3.4,6.14-13.94,1.27-4,2.47-7.82,3.42-9.93,1.73-3.87,6.57-8.81,9.77-12.08a40.51,40.51,0,0,0,2.81-3l0,0a3.89,3.89,0,0,1-.15,1.94,2.35,2.35,0,0,0,.22,2.21,2.4,2.4,0,0,0,2,.95,1.79,1.79,0,0,0,2-1.65c0-.7,1-3.66,3-3.82h.18c.58,0,.7.25.74.34a1.14,1.14,0,0,1,0,.86c-1.59.63-3.32,5.71-3.6,7.85-.24,1.9.18,3.1,1.25,3.57a2.42,2.42,0,0,0,.91.17c3.31,0,10.6-6.54,13.84-11.61,1.59-2.5.78-4.42.12-6-.87-2.05-1.56-3.67,4.86-7.2a11.08,11.08,0,0,1,5-1.67c2.43,0,3,2.06,3.51,4.36.2,1,.41,2,1.44,2h0a1.45,1.45,0,0,0,1.17-.75C167,14.12,181.6,6.05,190,2.67A8,8,0,0,1,192.71,2c.68,0,.82.23.88.32.49.79-.16,3-.75,4.26l-1.33,2.8,2.71-1.49a7.53,7.53,0,0,1,1.18-.55,35.87,35.87,0,0,1-1.48,5.71l-.17.57c-.89,2.92-5,8.26-19.52,17.17-4.47,2.74-4.6,5.66-4.7,7.79,0,.29,0,.57-.05.83-.06.69-.89,1.63-1.76,2.63-1.27,1.44-2.84,3.24-3.3,5.58a12.54,12.54,0,0,0,.94,7.37c-.07,1.63-.44,10.13-.44,11.37a30.39,30.39,0,0,0,.94,5c.18.79.36,1.56.49,2.2.45,2.15,1.76,14.44,1.61,18.53A101.64,101.64,0,0,0,169,104.87c.18,1.43.33,2.67.41,3.49a4.17,4.17,0,0,1-.92,3.06,4.81,4.81,0,0,0-1,2.71.59.59,0,0,1,0,.19h-.07l-.51,0c-.61,0-1.89.09-2.13,1.38a15.87,15.87,0,0,1-1,2.27c-1.08,2.14-1.78,3.63-1.73,4.65a2.69,2.69,0,0,1-.77.49c-.67.33-1.68.84-1.68,2,0,.39-1.23,1.3-1.71,1.37h0c-.87,0-1.31.85-1.62,1.47-.08.15-.19.37-.29.52a13,13,0,0,1-4.46-4.4,2.57,2.57,0,0,1-.35-2c1.21-3.55-1.07-10.09-1.17-10.37l-1.48-4.16c.18-.29.38-.6.61-.92a7.09,7.09,0,0,0,.76-1.25c.59-1.45-.46-3.48-2.22-6.68l-.72-1.3c-.77-1.43.31-3.51,1.25-5.35a11.43,11.43,0,0,0,1.31-3.22c.28-1.8-.71-3.66-1.77-5.63a25,25,0,0,1-1.61-3.45c-.45-1.31,0-1.84.78-2.71a4.42,4.42,0,0,0,1.42-3.16c-.07-2.36-1.71-4.06-2.8-5.19-.26-.27-.5-.52-.68-.74-.35-.81-.18-6.56.22-11.39l.2-2.47-1.86,1.64c-1,.87-5.95,5.33-6.67,7.48-.65,2,.95,3.91,2,5.21l.46.59c-.11.59-.65,2.14-1.05,3.3a36.83,36.83,0,0,0-1.46,4.79c-.22,1.43.4,3.85,1.38,7.37.34,1.22.66,2.38.86,3.31.5,2.29.24,14.6.06,20.17l-.49-.95-1.07-2.18-.77,2.31c-.21.61,0,2,.77,6.8.41,2.51.88,5.37.88,6.35,0,2.37-1,9.77-1.72,11a2.87,2.87,0,0,1-2,1.26v0c0-2.05-2.93-6.26-4.74-6.26a1.33,1.33,0,0,0-.82.28c-.68.55-.57,1.45-.27,3.84.38,3.08,1,8.23-.6,11.73a11.3,11.3,0,0,1-.84,1.54,6.82,6.82,0,0,1-.22-1.28,51.38,51.38,0,0,0-3.27-20.89c-.2-.57-.37-1-.49-1.42-.79-2.59-3.61-6-5.19-6.85,0-.2.08-.5.12-.72a5.71,5.71,0,0,0,.13-2c0-.15,0-.25.76-.69a5.74,5.74,0,0,0,1-.7c.34-.31,1.15-1,.91-12.33.18-2-.85-6-1.27-7.36-.15-.49.5-2.41.88-3.56.89-2.62,1.65-4.88.1-5.65a1.38,1.38,0,0,0-.62-.15c-1.41,0-2.29,1.78-4.1,6.17a23.24,23.24,0,0,1-1.61,3.48c-.91,1.17-1,4-1.13,7.81,0,1,0,2.29-.12,2.76a7.53,7.53,0,0,1-1.11.24,7.59,7.59,0,0,0-2.84.91,2.74,2.74,0,0,0-1,2.2c-.14,1.24-.23,2.05-3,2.05a17.37,17.37,0,0,1-2.12-.15c-3.43-.44-6.46-6.75-8.32-17.32-.13-.75-.26-1.46-1.11-1.46h-.43L93,87a1.09,1.09,0,0,0-.28.85c.06,1.18-.31,10.07-.56,16-.11,2.65-.2,4.81-.23,5.67-.06,2.07-.52,11.57-.85,18.5l-.29,6.08a9.11,9.11,0,0,1-3,6.85,12.62,12.62,0,0,0-1.15,1.32c-.08.12-.1.15-.4.15h-.47c-2,0-2.93,1.46-3.43,5.22-.37,2.78-.95,3.14-1,3.15a3,3,0,0,1-.55-.59l-.08-.11-.1-.09c-3.12-2.73-6.1-21.46-7.54-30.46-1.24-7.82-1.24-7.82-2.29-7.82h-.77l-.25.83c-.37,1.43-3.86,5-5.36,6.53l-.9.94c-1,1.11-4.14,6.41-7.48,12.21-.82,1.43-1.47,2.56-1.79,3.07-1.1,1.82-12,12.76-17.14,15.27l.32-.87a2.33,2.33,0,0,0,.75-1.38,1.31,1.31,0,0,0-.26-1.05l-.3-.33h-.46c-.73,0-1,.59-1.41,1.59a16.77,16.77,0,0,1-4.13,1.9l-.47.14L31,151c-.79,2-3.21,7.68-5,9.51-1,1-3.15,2-5.24,2.87-2.37,1-4.61,2-5.77,3.31-1.45,1.64-3.1,6.28-5.18,14.61l0,.22C9.59,182.33,8.42,182.72,7.15,182.84ZM45.3,119.4l1.77-2.48c1.13-1.58,11.06-15.59,11.63-19.18.34-2.18.27-3.23-.27-3.86a1.52,1.52,0,0,0-1.18-.53,2.65,2.65,0,0,0-.87.18,5.11,5.11,0,0,1,2.14-2.68c.88-.68,1.75-1.51,1.42-2.47-.12-.36-.5-1-1.71-1a9.24,9.24,0,0,0-3.95,1.11A8.8,8.8,0,0,1,55,85.15c.79-1.31,2.72-5.67,1.29-8.43l-.15-.28-.28-.14A29.15,29.15,0,0,0,50.38,74a2.85,2.85,0,0,0-.46-.05h-.79l-.23.79c-.19.81.51,1.15,1,1.37a8.31,8.31,0,0,1,1.38.79,7.89,7.89,0,0,1-4,1.35,1.37,1.37,0,0,1-.9-.2l-1.67-1.38ZM148,109.82a2.21,2.21,0,0,1,0-1.3Z" transform="translate(-1 -1)"/><path class="cls-2" d="M192.71,3h0a8.08,8.08,0,0,1-.82,3.15l-2.68,5.61L194,9.14c-.28,1-.68,2.34-1.07,3.62l-.17.57c-.83,2.75-4.82,7.86-19.08,16.6-4.93,3-5.08,6.38-5.18,8.61,0,.27,0,.53-.05.79A8.31,8.31,0,0,1,167,41.38c-1.35,1.54-3,3.45-3.53,6a13.57,13.57,0,0,0,.91,7.76c-.09,2.07-.43,10-.43,11.17a28.91,28.91,0,0,0,1,5.28c.19.78.36,1.54.49,2.17A150.44,150.44,0,0,1,167,92.1,99.56,99.56,0,0,0,168.05,105c.18,1.43.33,2.66.41,3.47a3.24,3.24,0,0,1-.77,2.41,6.59,6.59,0,0,0-1.11,2.49c-1.6.15-2.53.88-2.76,2.15-.09.31-.61,1.34-.95,2a16,16,0,0,0-1.82,4.57l-.24.12a3.47,3.47,0,0,0-2.22,2.61,3,3,0,0,1-.9.65,2.76,2.76,0,0,0-2.11,1.57c-1.56-1.15-3.86-3.56-3.49-4.65,1.3-3.81-.92-10.3-1.18-11l-1.31-3.7c.09-.14.2-.3.32-.46a8,8,0,0,0,.86-1.45c.81-2-.55-4.42-2.27-7.54-.23-.43-.47-.86-.71-1.29-.52-1,.47-2.89,1.26-4.43A12.4,12.4,0,0,0,150.47,89c.33-2.12-.74-4.13-1.87-6.25a22.93,22.93,0,0,1-1.55-3.31c-.26-.76-.14-.9.58-1.72a5.37,5.37,0,0,0,1.67-3.85c-.08-2.74-1.88-4.61-3.08-5.85l-.45-.48c-.26-1.35-.09-6.58.26-10.88l.4-4.94L142.72,55c-1.84,1.62-6.2,5.65-7,7.91-.82,2.47,1.06,4.79,2.18,6.17.05.05.1.12.15.18-.2.69-.6,1.85-.91,2.75a34.7,34.7,0,0,0-1.5,5c-.25,1.62.39,4.14,1.4,7.78.34,1.22.65,2.36.85,3.26.37,1.7.29,9.82.15,15.93l-.85-1.73-1.54,4.62c-.27.81-.18,1.77.73,7.28.39,2.36.87,5.29.87,6.19,0,2.38-1,9.38-1.59,10.5a1.34,1.34,0,0,1-.37.39c-.8-2.49-3.39-5.91-5.49-5.91a2.27,2.27,0,0,0-1.44.5c-1.12.9-1,2.18-.65,4.75a36,36,0,0,1,.36,7.57,51.81,51.81,0,0,0-3.34-16.94c-.2-.55-.37-1-.48-1.37a16.39,16.39,0,0,0-5.06-7v0a7.41,7.41,0,0,0,.19-1.9l.24-.14a7.17,7.17,0,0,0,1.16-.82c.66-.6,1.48-1.35,1.24-13,.19-2.37-1.08-6.87-1.29-7.58a17.53,17.53,0,0,1,.85-3c1-2.81,1.92-5.71-.4-6.87a2.37,2.37,0,0,0-1.07-.25c-2.22,0-3.34,2.7-5,6.79a28.52,28.52,0,0,1-1.47,3.25c-1.1,1.41-1.24,4.24-1.34,8.4,0,.63,0,1.41-.06,2l-.34.06a8.12,8.12,0,0,0-3.22,1.06,3.66,3.66,0,0,0-1.47,2.92c-.11,1-.13,1.16-2,1.16a15.34,15.34,0,0,1-2-.15c-2.26-.28-5.4-4.77-7.47-16.5-.13-.74-.4-2.28-2.09-2.28h-.86l-.59.63a2,2,0,0,0-.55,1.58c.06,1.14-.33,10.36-.56,15.87-.11,2.65-.2,4.82-.23,5.67-.06,2.07-.52,11.55-.85,18.47-.12,2.47-.22,4.64-.29,6.11a8.13,8.13,0,0,1-2.7,6.2,14.73,14.73,0,0,0-1,1.16h-.26c-3.18,0-4,2.92-4.42,6.09-.09.64-.18,1.13-.27,1.5-2.79-3.32-5.82-22.35-7-29.63-1.32-8.34-1.38-8.66-3.28-8.66a2.06,2.06,0,0,0-2,1.57c-.21.79-1.92,2.84-5.1,6.09-.37.38-.69.71-.92,1-1,1.07-3.46,5.18-7.61,12.37-.82,1.44-1.48,2.57-1.78,3.07-.9,1.48-8.86,9.49-14.2,13.32a2.2,2.2,0,0,0-.53-1.5l-.61-.67h-.9c-1.26,0-1.8.92-2.23,2a17.18,17.18,0,0,1-3.61,1.58l-.92.29-.35.9c-1.07,2.74-3.3,7.66-4.76,9.17-.86.9-3,1.83-4.92,2.65-2.47,1.07-4.81,2.09-6.12,3.57s-2.44,4.32-3.9,9.39a2.17,2.17,0,0,0-.15-.22l-.6-.88H8.57a2,2,0,0,0-1.74,1,9.1,9.1,0,0,1-3,.33,2.67,2.67,0,0,0-.48-1.23,22.83,22.83,0,0,1,2.8-3l.08-.08.08-.09c0-.05,5-5.67,9.81-11.81,9-11.48,9.81-15,9.46-16.93-.6-3.31.94-16.78,2.12-25v-.15c.17-2.56,1.67-25.19,1.12-28.65-.38-2.44.43-7.62.78-9.41l.79-4.07-3.68,1.92a20.59,20.59,0,0,1-4.2,1.69l.3-6.57-4,6.48s-.16.27-.67,1.06l-.29,0c-.35,0-.79-.07-1.26-.07a6.65,6.65,0,0,0-4.19,1.39c-.19.15-1.39.9-5.67.9-1.49,0-2.82-.09-3.51-.15a16.46,16.46,0,0,1,2.71-4.62c1.19-1.54,8.49-9.63,10.8-11.81C18,64.2,22,62.36,25.85,60.59c1.94-.9,3.95-1.83,5.78-2.75a45.29,45.29,0,0,1,19.23-4.51c.66,0,1.33,0,2,.05,6,.34,9.21,3.79,11.58,6.31.49.52,1,1,1.41,1.44a5.86,5.86,0,0,0,4.07,1.94,5.52,5.52,0,0,0,1.62-.27c.28.78.58,2,.74,2.69.55,2.24.86,3.47,2.21,3.88l.32.09h.29a2.19,2.19,0,0,0,1.62-.73C78.15,67.14,78,61.44,78,61.39c0-.52.44-2.29,2-5,.69-1.23,1-3.68,1.52-7.59a52.62,52.62,0,0,1,.83-5.27l.69.13a6.39,6.39,0,0,0,1.4.2A2.71,2.71,0,0,0,86,43.35a3.23,3.23,0,0,0,1.19-2.07.43.43,0,0,1,.19.16l.1.51.66.46a20.8,20.8,0,0,0,10.52,3.91l.44,0a19.91,19.91,0,0,1,1,5.65c-.31,2,2,8.86,4,11.19a3.37,3.37,0,0,0,2.57,1.37,2.52,2.52,0,0,0,.48,0c2.18-.4,3.33-3.31,6.91-14.61,1.21-3.82,2.46-7.77,3.38-9.83,1.66-3.71,6.61-8.77,9.58-11.79l.8-.82a3.19,3.19,0,0,0,.57,1.79,3.45,3.45,0,0,0,2.83,1.37,3.24,3.24,0,0,0,2.15-.75,22.2,22.2,0,0,0-.81,3.19c-.39,3,.79,4.16,1.85,4.61a3.24,3.24,0,0,0,1.3.26c4,0,11.64-7.32,14.68-12.07,1.88-2.95.87-5.32.2-6.89-.47-1.1-.62-1.57-.41-2.08.28-.7,1.36-1.94,4.83-3.85a9.92,9.92,0,0,1,4.5-1.55c1.39,0,2,.83,2.53,3.56.2,1,.57,2.84,2.42,2.84a2.35,2.35,0,0,0,2-1.19c1.36-1.86,15.18-9.63,23.93-13.13a6.75,6.75,0,0,1,2.31-.6M49.15,76.87a6.08,6.08,0,0,1-1.91.39,1.68,1.68,0,0,1-.34,0l-3.26-2.7.06,4.33.55,37.51.09,6.1,3.54-5c2.62-3.68,11.22-16,11.8-19.6.35-2.18.38-3.65-.49-4.67a2.42,2.42,0,0,0-1-.72,8,8,0,0,1,1-.87c.65-.49,2.37-1.81,1.77-3.59a2.53,2.53,0,0,0-2.66-1.63,9.28,9.28,0,0,0-2.74.5,4.7,4.7,0,0,1,.4-1.25c.93-1.54,3-6.23,1.32-9.41l-.29-.56-.57-.29A28.69,28.69,0,0,0,50.54,73a3.16,3.16,0,0,0-.62-.07H48.28l-.35,1.56a2.05,2.05,0,0,0,1.22,2.34m86.09-51a8.37,8.37,0,0,0-.68,1.14,4.3,4.3,0,0,1,.68-1.14M192.71,1a8.69,8.69,0,0,0-3.05.74C181.5,5,166.44,13.17,164.81,15.62c-.14.21-.25.3-.34.3-.74,0-.15-6.4-4.95-6.4a11.88,11.88,0,0,0-5.47,1.79c-11.72,6.46-1.92,8.16-5.34,13.5-3.19,5-10.26,11.15-13,11.15a1.36,1.36,0,0,1-.51-.09c-2.22-1,1.34-9.42,2.3-9.57s1.38-3.13-1.07-3.13h-.26c-2.75.23-3.94,3.79-3.94,4.82,0,.42-.48.65-1,.65a1.27,1.27,0,0,1-1.29-1.83c.56-1.62.2-3.53-.65-3.53-.28,0-.61.21-1,.71-1.48,2-10.16,9.64-12.68,15.28S108.8,62.2,106.8,62.57h-.12c-2,0-4.77-8.86-4.55-10.24s-.82-7.13-1.78-7.72-5,.3-11.06-3.86a2.54,2.54,0,0,0-2.52-1.55c-2,0-1.11,1.92-1.93,2.52a.77.77,0,0,1-.45.11c-.59,0-1.48-.34-2.29-.34a1.57,1.57,0,0,0-1.63,1.19c-.82,2.38-1.29,11-2.26,12.71S75.87,60,76,61.56s-.3,5.9-.93,5.9h0c-.65-.19-1.36-6.87-2.78-6.87-.8,0-1.47.49-2.36.49a4,4,0,0,1-2.7-1.39C64.6,57.22,61,51.84,53,51.39c-.7,0-1.39-.06-2.09-.06a47.22,47.22,0,0,0-20.13,4.72c-5.63,2.85-13.08,5.77-15.41,8s-9.72,10.36-11,12S-1,83.33,2.48,83.84c0,0,1.92.21,4.21.21,2.52,0,5.51-.25,6.89-1.31a4.61,4.61,0,0,1,3-1c.71,0,1.34.11,1.86.11a1.15,1.15,0,0,0,1.06-.45c.79-1.23,1-1.57,1-1.57s0,.78,1.46,1a1.12,1.12,0,0,0,.27,0c1.68,0,5.44-2,5.44-2s-1.32,6.77-.79,10.11-1.15,28.2-1.15,28.2-3,20.82-2.1,25.66S4.79,170,4.79,170s-5,4.48-3.51,5.27-.53,2.37.53,2.37c.33,0,1.07,0,1.93,0,1.84,0,4.26-.16,4.74-1.18l.09-.17c.09,0-2.9,7.55-2.9,7.55s.22,0,.57,0c1.23,0,4-.22,4.53-2.13.61-2.46,3-12.12,5-14.41s8.69-3.78,11-6.15,5.18-9.84,5.18-9.84a16.71,16.71,0,0,0,4.67-2.24,4,4,0,0,1,.58-1.2s.05.09,0,.28a1.55,1.55,0,0,1-.6.92c-.51,1.3-1.15,3.21-1.15,3.21s-1.15.53-1.1.53.7-.28,2.87-1.24c5.17-2.28,16.68-13.79,17.91-15.81s7.73-13.62,9.14-15.11,6-5.89,6.5-7.91c0-.06,0-.08,0-.08.68,0,4.39,33.85,9.17,38,0,0,.68,1,1.45,1s1.48-.83,1.89-4c.54-4.06,1.49-4.35,2.44-4.35h.47a1.3,1.3,0,0,0,1.22-.57c1.23-1.76,4-3.08,4.31-8.7s1-21.79,1.14-24.6.88-20,.79-21.7v-.12c.11,0,2.4,17.89,9.31,18.77a17.79,17.79,0,0,0,2.24.16c5.35,0,3.19-3.54,4.53-4.41s3.87-.61,4.3-1.49-.08-8.87,1.15-10.45S118.73,81,120.16,81a.33.33,0,0,1,.17,0c1.41.7-2,6.85-1.49,8.61s1.41,5.45,1.23,7c0,0,.23,10.89-.58,11.63s-2.3,1-2.08,2.3-.82,3.12.15,3.41,4,3.64,4.82,6.31,4.23,9.79,3.71,22c0,0,.17,2.62,1.06,2.62.44,0,1-.62,1.9-2.47,2.6-5.64-.14-14.61.6-15.21a.29.29,0,0,1,.19-.06c1,0,3.74,3.46,3.74,5.26a.91.91,0,0,0,1,1,3.85,3.85,0,0,0,2.86-1.77c.89-1.55,1.85-9.27,1.85-11.49s-2-12-1.7-12.84c0,0,1.59,3.25,2.13,3.25.09,0,.15-.1.17-.35.07-1.64.66-19.74,0-22.78s-2.53-8.38-2.23-10.31,2.7-7.79,2.54-8.46-3.21-3.26-2.54-5.26,6.38-7,6.38-7-.89,11,0,12.09,3.19,2.82,3.26,5.34-3.26,2.9-2.15,6.16,3.71,6.23,3.34,8.6-4,6.31-2.45,9.2,3.41,5.86,2.9,7.12-3.05,3.27-1.49,5.94c.72,1.23,1.11,1.56,1.32,1.56s.25-.45.25-.45,2.29,6.46,1.18,9.72,5,7.79,5.86,7.79,1.18-2.08,1.85-2.08,2.67-1.26,2.67-2.37,2.52-1.11,2.45-2.52,2.52-5.49,2.74-6.68,2.75.22,2.75-1.78,2.22-2.75,1.93-5.86S168.82,96.4,169,92.17s-1.18-16.62-1.63-18.77-1.41-5.71-1.41-7,.45-11.58.45-11.58a11.5,11.5,0,0,1-1-7c.75-3.78,4.88-6.08,5.08-8.31s-.33-5,4.27-7.86,17.95-11.13,20-17.73c1.53-5.05,2.37-7.63,1-7.63a4.69,4.69,0,0,0-1.95.73s2.87-6-1-6ZM47.24,79.26c2,0,4.74-1.23,5.11-2.14C52.8,76,49.44,75,49.92,75l.28,0a30.23,30.23,0,0,1,5.23,2.18c1.1,2.12-.31,5.89-1.25,7.46-.83,1.39-1.3,5.4-.42,5.4a.71.71,0,0,0,.42-.22,7.58,7.58,0,0,1,4-1.4c.94,0,1.24.44-.32,1.63C54.76,92.46,55,94.68,56,94.68a.73.73,0,0,0,.34-.08,2.43,2.43,0,0,1,.88-.25c.63,0,.86.73.46,3.24-.55,3.45-11.46,18.75-11.46,18.75L45.7,78.83a2.43,2.43,0,0,0,1.54.43Z" transform="translate(-1 -1)"/></g></g></svg>