<svg xmlns="http://www.w3.org/2000/svg" viewBox="0 0 84.5 57.17"><defs><style>.cls-1{fill:#fff;}</style></defs><title>Asset 19</title><g id="Layer_2" data-name="Layer 2"><g id="Layer_1-2" data-name="Layer 1"><path class="cls-1" d="M0,5.33A111.55,111.55,0,0,1,21,1.15,187.06,187.06,0,0,1,42,0,187.06,187.06,0,0,1,63,1.15,111.55,111.55,0,0,1,84,5.33v3a110.79,110.79,0,0,1-21,4.19,187.06,187.06,0,0,1-21,1.15,187.06,187.06,0,0,1-21-1.15A110.79,110.79,0,0,1,0,8.33Z"/><path class="cls-1" d="M.5,27.83a111.55,111.55,0,0,1,21-4.18,187.06,187.06,0,0,1,21-1.15,187.06,187.06,0,0,1,21,1.15,111.55,111.55,0,0,1,21,4.18v3A110.79,110.79,0,0,1,63.5,35a187.06,187.06,0,0,1-21,1.15A187.06,187.06,0,0,1,21.5,35a110.79,110.79,0,0,1-21-4.19Z"/><path class="cls-1" d="M.5,48.83a111.55,111.55,0,0,1,21-4.18,187.06,187.06,0,0,1,21-1.15,187.06,187.06,0,0,1,21,1.15,111.55,111.55,0,0,1,21,4.18v3A110.79,110.79,0,0,1,63.5,56a187.06,187.06,0,0,1-21,1.15A187.06,187.06,0,0,1,21.5,56a110.79,110.79,0,0,1-21-4.19Z"/></g></g></svg>