<svg xmlns="http://www.w3.org/2000/svg" viewBox="0 0 18.41 32.5"><defs><style>.cls-1{fill:#fff;}</style></defs><title>Asset 5</title><g id="Layer_2" data-name="Layer 2"><g id="Layer_1-2" data-name="Layer 1"><path class="cls-1" d="M.06,23.05h0a1,1,0,0,1,1.58-.36L7.35,28.4A.39.39,0,0,0,8,28.11V9A1,1,0,0,1,9,8h.44a1,1,0,0,1,1,1V28.11a.4.4,0,0,0,.68.29l5.7-5.71a1,1,0,0,1,1.58.36h0a1,1,0,0,1-.22,1L9.88,32.22a1,1,0,0,1-1.35,0L.29,24.06A1,1,0,0,1,.06,23.05Z"/><path class="cls-1" d="M.06,9.45h0a1,1,0,0,0,1.58.36L7.35,4.1A.39.39,0,0,1,8,4.39V23.54a1,1,0,0,0,1,1h.44a1,1,0,0,0,1-1V4.39a.4.4,0,0,1,.68-.29l5.7,5.71a1,1,0,0,0,1.58-.36h0a1,1,0,0,0-.22-1L9.88.28a1,1,0,0,0-1.35,0L.29,8.44A1,1,0,0,0,.06,9.45Z"/></g></g></svg>