<?xml version="1.0" encoding="utf-8"?>
<!-- Generator: Adobe Illustrator 24.0.2, SVG Export Plug-In . SVG Version: 6.00 Build 0)  -->
<svg version="1.1"
	 id="Слой_1" inkscape:version="0.91 r13725" sodipodi:docname="YouTube_social_dark circle_(2017).svg" xmlns:cc="http://creativecommons.org/ns#" xmlns:dc="http://purl.org/dc/elements/1.1/" xmlns:inkscape="http://www.inkscape.org/namespaces/inkscape" xmlns:rdf="http://www.w3.org/1999/02/22-rdf-syntax-ns#" xmlns:sodipodi="http://sodipodi.sourceforge.net/DTD/sodipodi-0.dtd" xmlns:svg="http://www.w3.org/2000/svg"
	 xmlns="http://www.w3.org/2000/svg" xmlns:xlink="http://www.w3.org/1999/xlink" x="0px" y="0px" viewBox="0 0 300 300"
	 style="enable-background:new 0 0 300 300;" xml:space="preserve">
<style type="text/css">
	.st0{fill:#FFFFFF;}
</style>
<sodipodi:namedview  bordercolor="#666666" borderopacity="1" fit-margin-bottom="0" fit-margin-left="0" fit-margin-right="0" fit-margin-top="0" gridtolerance="10" guidetolerance="10" id="namedview13" inkscape:current-layer="Слой_1" inkscape:cx="209.20583" inkscape:cy="130.08751" inkscape:pageopacity="0" inkscape:pageshadow="2" inkscape:window-height="715" inkscape:window-maximized="1" inkscape:window-width="1366" inkscape:window-x="-8" inkscape:window-y="-8" inkscape:zoom="1.668772" objecttolerance="10" pagecolor="#ffffff" showgrid="false">
	</sodipodi:namedview>
<g id="g4189" transform="scale(0.75,0.75)">
	<g id="g4167" transform="matrix(7.8701756,0,0,7.8701756,695.19553,-948.4235)">
		<path id="path4156" class="st0" d="M-62.9,129.1c0,0-15,0-18.8,1c-2,0.6-3.7,2.2-4.2,4.3c-1,3.8-1,11.6-1,11.6s0,7.8,1,11.6
			c0.6,2.1,2.2,3.7,4.2,4.2c3.8,1,18.8,1,18.8,1s15.1,0,18.8-1c2.1-0.6,3.7-2.2,4.2-4.2c1-3.7,1-11.6,1-11.6s0-7.8-1-11.6
			c-0.5-2.1-2.2-3.7-4.2-4.2C-47.9,129.1-62.9,129.1-62.9,129.1z M-67.7,138.7l12.5,7.2l-12.5,7.2V138.7z"/>
	</g>
</g>
</svg>
