<svg xmlns="http://www.w3.org/2000/svg" viewBox="0 0 34.42 24.08"><defs><style>.cls-1{fill:#fff;}</style></defs><title>Asset 7</title><g id="Layer_2" data-name="Layer 2"><g id="Layer_1-2" data-name="Layer 1"><path class="cls-1" d="M12.36.08h0a1.25,1.25,0,0,1,.46,2.07L5.37,9.61a.51.51,0,0,0,.36.88H30.79a1.27,1.27,0,0,1,1.26,1.26v.58a1.26,1.26,0,0,1-1.26,1.25H5.73a.52.52,0,0,0-.36.89l7.45,7.46A1.25,1.25,0,0,1,12.36,24h0A1.26,1.26,0,0,1,11,23.71L.36,12.92a1.27,1.27,0,0,1,0-1.77L11,.37A1.25,1.25,0,0,1,12.36.08Z"/><path class="cls-1" d="M22.06.08h0a1.25,1.25,0,0,0-.46,2.07l7.45,7.46a.51.51,0,0,1-.36.88H3.63a1.26,1.26,0,0,0-1.25,1.26v.58a1.25,1.25,0,0,0,1.25,1.25H28.69a.52.52,0,0,1,.36.89L21.6,21.93A1.25,1.25,0,0,0,22.06,24h0a1.26,1.26,0,0,0,1.32-.29L34.06,12.92a1.27,1.27,0,0,0,0-1.77L23.38.37A1.24,1.24,0,0,0,22.06.08Z"/></g></g></svg>