<svg xmlns="http://www.w3.org/2000/svg" viewBox="0 0 195.39 182.89"><defs><style>.cls-1{fill:#020202;}.cls-2{fill:#feeeee;}.cls-3{fill:#615083;}</style></defs><title>Asset 2</title><g id="Layer_2" data-name="Layer 2"><g id="Layer_1-2" data-name="Layer 1"><path class="cls-1" d="M37.71,148.7c.08-.67-.22,0-.6.92A1.55,1.55,0,0,0,37.71,148.7Z" transform="translate(-1.5 -1.5)"/><path class="cls-2" d="M37.69,148.42a4,4,0,0,0-.58,1.2,1.55,1.55,0,0,0,.6-.92c0-.19,0-.28,0-.28Z" transform="translate(-1.5 -1.5)"/><path class="cls-3" d="M8.44,182.72c2.37-6,2.33-6.08,1.88-6.74l-.45-.66h-.8a1.51,1.51,0,0,0-1.38.91c-.18.1-1,.44-3.45.44H3.83A2.21,2.21,0,0,0,3.2,175a20.73,20.73,0,0,1,3.09-3.36l.07-.06.06-.07c4.73-5.34,20.09-23.17,19.15-28.32-.68-3.77,1.3-19.45,2.12-25.18v-.11c.17-2.56,1.67-25.13,1.13-28.54-.4-2.52.43-7.77.78-9.58l.59-3-2.75,1.43a16.66,16.66,0,0,1-4.75,1.79l-.21,0,.23-5.17-3,4.86s-.19.31-.83,1.31l-.6-.05c-.37,0-.78-.06-1.21-.06a6.13,6.13,0,0,0-3.88,1.29c-.4.3-1.76,1-6,1-2.18,0-4-.2-4.05-.2h0c0-.65.82-2.66,2.89-5.36,1.2-1.55,8.53-9.68,10.86-11.87,1.41-1.33,5.42-3.19,9.29-5,1.94-.89,3.95-1.82,5.77-2.74a45.72,45.72,0,0,1,19.45-4.56c.67,0,1.34,0,2,.06,6.16.34,9.49,3.87,11.92,6.45.49.53,1,1,1.38,1.42a5.39,5.39,0,0,0,3.73,1.81,5.47,5.47,0,0,0,1.7-.32l.21-.07a24.58,24.58,0,0,1,.94,3.19c.54,2.19.78,3.19,1.86,3.52l.21.06h.26a1.67,1.67,0,0,0,1.25-.57c1.17-1.27,1.24-6.19,1.18-7s.76-3,2-5.3c.62-1.13,1-3.55,1.46-7.41a41.53,41.53,0,0,1,.9-5.54.69.69,0,0,1,.09-.18h.13a5.14,5.14,0,0,1,1,.16,6.26,6.26,0,0,0,1.29.18,2.16,2.16,0,0,0,1.33-.4,2.84,2.84,0,0,0,1-2c0-.06,0-.14,0-.2.77,0,1,.4,1.09.57l.16.48.39.24a20.42,20.42,0,0,0,10.29,3.83l.74.08a20,20,0,0,1,1.18,6.19C100.88,54.27,103,61,105,63.38a2.89,2.89,0,0,0,2.19,1.2,2.56,2.56,0,0,0,.39,0c1.87-.35,3-3.18,6.52-14.28,1.22-3.83,2.47-7.79,3.41-9.88,1.69-3.78,6.49-8.69,9.67-11.93.79-.81,1.46-1.49,2-2a3.59,3.59,0,0,1-.11.41,2.83,2.83,0,0,0,.28,2.66,2.92,2.92,0,0,0,2.42,1.16,2.3,2.3,0,0,0,2.51-2.15c0-.59.89-3.19,2.56-3.32h.14a.55.55,0,0,1,.29,0,.65.65,0,0,1,0,.3c-2,1.15-3.5,6.66-3.69,8.13-.34,2.68.66,3.7,1.56,4.09a2.64,2.64,0,0,0,1.1.22c3.82,0,11.28-7.18,14.26-11.84,1.74-2.72.83-4.86.16-6.43-.83-2-1.38-3.25,4.64-6.56A10.63,10.63,0,0,1,160,11.52c1.87,0,2.5,1.39,3,4,.21,1,.49,2.44,1.93,2.44h0a1.91,1.91,0,0,0,1.59-1c1.23-1.85,15.16-9.71,24.16-13.31A7,7,0,0,1,193.21,3c.27,0,.43,0,.45.09.3.47-.08,2.3-.77,3.78l-2,4.19L195,8.83l.32-.17c-.24,1.14-.8,3-1.34,4.75l-.17.56c-.86,2.84-4.91,8.07-19.3,16.89-4.7,2.88-4.85,6.08-4.94,8.2,0,.28,0,.55-.05.81a6.8,6.8,0,0,1-1.64,2.34c-1.3,1.49-2.93,3.34-3.41,5.81a13.13,13.13,0,0,0,.92,7.57c-.08,1.88-.43,10-.43,11.27a28.91,28.91,0,0,0,1,5.16c.18.79.36,1.55.49,2.19A148.29,148.29,0,0,1,168,92.62a100.64,100.64,0,0,0,1.09,12.81c.17,1.43.33,2.66.4,3.48a3.7,3.7,0,0,1-.84,2.74,5.47,5.47,0,0,0-1.08,2.68h-.14a2.4,2.4,0,0,0-2.59,1.79,19.9,19.9,0,0,1-1,2.13c-1.07,2.12-1.75,3.54-1.79,4.66-.13.08-.34.18-.49.26-.67.34-1.9.95-2,2.33a3.06,3.06,0,0,1-1.28,1c-1.15.07-1.68,1.11-2,1.74l0,.07c-1.61-1-4.67-4-4.14-5.54,1.24-3.65-.93-10-1.18-10.7l-1.4-3.93c.14-.22.29-.44.47-.69a7.43,7.43,0,0,0,.81-1.35c.72-1.74-.59-4.11-2.25-7.11l-.71-1.3c-.64-1.2.37-3.16,1.26-4.88a11.92,11.92,0,0,0,1.35-3.37c.31-2-.72-3.9-1.81-6a23.93,23.93,0,0,1-1.59-3.37c-.35-1,0-1.39.68-2.22a4.86,4.86,0,0,0,1.55-3.5c-.07-2.55-1.8-4.34-2.94-5.53-.2-.21-.4-.41-.55-.59-.32-1.19-.14-6.64.22-11.15l.3-3.71-2.78,2.47c-1.42,1.24-6.08,5.48-6.81,7.69s1,4.39,2.09,5.69c.1.12.22.26.31.39-.17.66-.63,2-1,3a36.26,36.26,0,0,0-1.47,4.87c-.24,1.53.39,4,1.39,7.58.33,1.22.65,2.37.85,3.28.43,2,.27,12,.11,18.08L137.82,104l-1.16,3.47c-.23.69-.12,1.75.75,7,.42,2.5.88,5.33.88,6.27,0,2.5-1,9.67-1.66,10.75a2.44,2.44,0,0,1-1.11.89c-.44-2.42-3.24-6.16-5.18-6.16a1.82,1.82,0,0,0-1.13.39c-.9.72-.77,1.77-.46,4.3.37,3,1,8.08-.56,11.45l-.09.2a51.71,51.71,0,0,0-3.31-20.79c-.2-.56-.36-1-.48-1.4a15.53,15.53,0,0,0-5.13-7c0-.12,0-.26.07-.37a6.79,6.79,0,0,0,.16-2.06l.5-.32A6.3,6.3,0,0,0,121,110c.5-.44,1.32-1.19,1.08-12.68.21-2.46-1.28-7.47-1.29-7.52a15.39,15.39,0,0,1,.88-3.26c.92-2.72,1.78-5.29-.16-6.26a1.76,1.76,0,0,0-.84-.2c-1.8,0-2.8,2.22-4.56,6.48a24.27,24.27,0,0,1-1.55,3.36c-1,1.29-1.13,4-1.23,8.11,0,.83,0,1.82-.08,2.38l-.73.14a8,8,0,0,0-3,1,3.22,3.22,0,0,0-1.25,2.57c-.13,1.13-.19,1.6-2.47,1.6a16.2,16.2,0,0,1-2.05-.15c-4.67-.59-7.23-13.09-7.9-16.91-.13-.74-.33-1.87-1.6-1.87h-.64l-.45.47a1.6,1.6,0,0,0-.41,1.22c.06,1.16-.33,10.39-.56,15.91C92,107,92,109.14,91.92,110c-.06,2.07-.52,11.56-.85,18.5l-.29,6.08a8.64,8.64,0,0,1-2.84,6.52,14.11,14.11,0,0,0-1.15,1.32h-.51c-2.64,0-3.48,2.26-3.92,5.65a10.07,10.07,0,0,1-.55,2.42.19.19,0,0,1-.06-.07l-.11-.16-.15-.13c-3-2.62-6.06-21.93-7.37-30.17s-1.31-8.24-2.79-8.24H70.17l-.34,1.2c-.35,1.31-3.9,5-5.23,6.31-.37.38-.69.7-.92,1-1.07,1.14-4.18,6.47-7.55,12.3-.81,1.42-1.46,2.55-1.77,3.06-1,1.6-10.08,10.72-15.43,14.2a2.33,2.33,0,0,0,.27-.86,1.77,1.77,0,0,0-.38-1.44l-.44-.5h-.69c-1,0-1.42.76-1.82,1.77A16.5,16.5,0,0,1,32,150.43l-.69.21-.27.68c-.77,2-3.16,7.58-4.86,9.34-.93,1-3,1.88-5.08,2.76-2.42,1.05-4.71,2-6,3.44-1.5,1.7-3.18,6.41-5.28,14.82l-.06.22C9.72,182.26,9.21,182.55,8.44,182.72ZM44.7,79.35l.62,42.09L48,117.71c1.86-2.6,11.14-15.77,11.72-19.39.38-2.38.28-3.49-.38-4.27a2,2,0,0,0-1.56-.7h0a6.59,6.59,0,0,1,1.58-1.6c.62-.48,2.08-1.6,1.59-3a2,2,0,0,0-2.18-1.3,9.53,9.53,0,0,0-3.38.78A7,7,0,0,1,56,85.91c.89-1.47,2.84-6,1.3-8.92L57,76.57l-.42-.22A28.37,28.37,0,0,0,51,74a3,3,0,0,0-.54-.06H49.23l-.32,1.18c-.27,1.19.79,1.71,1.25,1.93l.66.34a7.62,7.62,0,0,1-3.08.85,1.44,1.44,0,0,1-.59-.09L44.64,76.1Z" transform="translate(-1.5 -1.5)"/><path class="cls-2" d="M192.07,4.74a9.33,9.33,0,0,1-.54,1.48l-4,8.41,5.39-3-.39,1.3-.18.57c-.64,2.11-3.91,7-18.65,16-5.37,3.3-5.55,7.13-5.65,9.41l0,.62a12.7,12.7,0,0,1-1.29,1.61c-1.34,1.54-3.19,3.65-3.75,6.51a14.43,14.43,0,0,0,.88,8.15c-.11,2.47-.42,9.78-.42,11a29,29,0,0,0,1,5.51c.18.77.36,1.52.48,2.14a152.22,152.22,0,0,1,1.58,18.06,101.14,101.14,0,0,0,1.09,13c.17,1.42.33,2.65.4,3.44a2.33,2.33,0,0,1-.6,1.78,8.24,8.24,0,0,0-1.09,2.15,3.52,3.52,0,0,0-2.93,2.78c-.11.33-.56,1.23-.86,1.83a19.94,19.94,0,0,0-1.83,4.36,4.37,4.37,0,0,0-2.49,2.89,2,2,0,0,1-.26.18,3.31,3.31,0,0,0-2,1.1c-1.1-1-2.25-2.28-2.33-3,1.32-4.05-.77-10.37-1.21-11.6l-1.14-3.22,0,0a8.54,8.54,0,0,0,1-1.64c1-2.4-.47-5.05-2.32-8.4-.24-.43-.48-.86-.71-1.29s.81-2.59,1.27-3.49a12.9,12.9,0,0,0,1.5-3.82c.39-2.46-.81-4.71-2-6.88a23,23,0,0,1-1.49-3.16c0-.09-.05-.16-.06-.2s.31-.38.45-.54a6.31,6.31,0,0,0,1.92-4.54c-.09-3.13-2.14-5.25-3.36-6.52l-.22-.23a78.83,78.83,0,0,1,.31-10.35l.6-7.41-5.58,4.92c-2.36,2.08-6.43,5.94-7.24,8.35-.94,2.83,1,5.39,2.17,6.88-.21.66-.52,1.54-.74,2.2a36.35,36.35,0,0,0-1.55,5.13c-.28,1.83.36,4.32,1.43,8.21.33,1.2.64,2.33.83,3.21.27,1.21.28,6.43.21,11.57l-.11-.22L135.24,107c-.36,1.09-.23,2.17.69,7.76.37,2.2.86,5.21.86,6a59.84,59.84,0,0,1-1,8.32c-1.33-2.26-3.45-4.34-5.42-4.34a3.36,3.36,0,0,0-2.07.72,3.79,3.79,0,0,0-.53.53c-.55-2-1.12-3.56-1.53-4.71-.2-.54-.36-1-.46-1.33a17.36,17.36,0,0,0-4.93-7.15,7.15,7.15,0,0,0,.11-1,6.79,6.79,0,0,0,1.07-.79c.94-.85,1.82-1.65,1.57-13.75.17-2.43-.95-6.56-1.27-7.7a21,21,0,0,1,.78-2.64c1-2.91,2.2-6.53-.91-8.08a3.29,3.29,0,0,0-1.51-.36c-2.89,0-4.17,3.11-6,7.41a33,33,0,0,1-1.34,3c-1.29,1.66-1.44,4.5-1.55,9,0,.36,0,.77,0,1.16a8.32,8.32,0,0,0-3.14,1.13,4.55,4.55,0,0,0-1.92,3.64l0,.21a5.93,5.93,0,0,1-.95.07,15.14,15.14,0,0,1-1.86-.14c-.17,0-4-.67-6.61-15.68-.36-2.06-1.4-3.11-3.08-3.11H92.92l-.88.94a3,3,0,0,0-.83,2.32c.06,1.12-.34,10.65-.56,15.77-.11,2.67-.2,4.84-.23,5.69-.06,2.06-.52,11.53-.85,18.45-.12,2.47-.22,4.65-.29,6.11a7.19,7.19,0,0,1-2.42,5.55c-.26.28-.53.56-.79.86-3.37.12-4.49,3.06-4.94,5.31a68.67,68.67,0,0,1-2.34-8.63c-1.3-6-2.39-12.87-3.19-17.88-.33-2.06-.61-3.84-.84-5.1-.35-2-.79-4.4-3.43-4.4a3,3,0,0,0-2.94,2.28c-.47,1.18-3.78,4.57-4.87,5.69l-.93,1c-1.09,1.15-3.46,5.14-7.74,12.57-.79,1.37-1.48,2.55-1.77,3-.91,1.4-7.69,8.26-12.78,12.18a2.8,2.8,0,0,0-.36-.49l-.91-1H37.69a3.27,3.27,0,0,0-3,2.26A17.74,17.74,0,0,1,31.55,149l-1.38.43-.52,1.34c-1.12,2.87-3.27,7.52-4.55,8.85-.72.75-2.87,1.68-4.59,2.42-2.58,1.12-5,2.18-6.48,3.82-1.13,1.28-2.28,3.82-3.56,8H9.07A3,3,0,0,0,6.71,175a9.31,9.31,0,0,1-1.64.17l-.05-.1a25.71,25.71,0,0,1,2.27-2.33l.13-.11.12-.13c.2-.23,5-5.7,9.85-11.87,9.18-11.76,10.07-15.47,9.66-17.72-.58-3.17,1-16.83,2.12-24.69l0-.12V118c.28-4.21,1.66-25.38,1.11-28.87-.32-2,.3-6.65.77-9.07l1.19-6.09L26.75,76.8A28.84,28.84,0,0,1,24.08,78l.4-9-6.06,9.73-.34.53c-.3,0-.65,0-1,0a7.56,7.56,0,0,0-4.79,1.6s-1,.69-5.07.69c-.74,0-1.44,0-2,0a22.33,22.33,0,0,1,2-3.11c1.18-1.53,8.41-9.53,10.7-11.69,1.23-1.16,5.3-3.05,8.89-4.7,1.95-.91,4-1.84,5.81-2.77a44.23,44.23,0,0,1,18.78-4.4c.65,0,1.29,0,1.92.05,5.56.32,8.52,3.46,10.9,6,.5.53,1,1,1.45,1.48a6.88,6.88,0,0,0,4.76,2.22,5.4,5.4,0,0,0,.94-.08c.17.6.34,1.27.45,1.74.58,2.34,1,4,2.89,4.59l.46.14h.44a3.18,3.18,0,0,0,2.35-1c1.84-2,1.58-8,1.57-8.07a14.64,14.64,0,0,1,1.84-4.48c.77-1.39,1.11-3.81,1.64-8,.18-1.43.39-3.1.6-4.23a6,6,0,0,0,1.32.16,3.71,3.71,0,0,0,2.22-.69,3.6,3.6,0,0,0,.92-1l.06,0A21.73,21.73,0,0,0,98.88,47.8a20.43,20.43,0,0,1,.78,4.62c-.31,2.28,2,9.37,4.19,11.94a4.33,4.33,0,0,0,3.33,1.72,3.79,3.79,0,0,0,.67-.06c2.74-.51,3.82-3.16,7.67-15.29,1.2-3.79,2.45-7.71,3.35-9.72,1.51-3.38,6-8.07,8.95-11.07a4.94,4.94,0,0,0,.27.42,4.45,4.45,0,0,0,3.64,1.79,5.68,5.68,0,0,0,.59,0,12.13,12.13,0,0,0-.24,1.34c-.49,3.79,1.32,5.17,2.44,5.66a4.16,4.16,0,0,0,1.7.34c4.52,0,12.33-7.54,15.52-12.53,2.17-3.39,1-6.17.28-7.82a3.31,3.31,0,0,1-.41-1.31c.08-.2.69-1.32,4.39-3.36A9,9,0,0,1,160,13c.53,0,1,0,1.55,2.76.2,1,.74,3.64,3.4,3.64a3.35,3.35,0,0,0,2.8-1.59c1.69-1.94,15.25-9.5,23.5-12.8.31-.12.57-.22.8-.29M47.57,76.57l-4.46-3.69.09,6.5.55,37.5.14,9.15,5.3-7.45c3.41-4.77,11.39-16.28,12-20,.31-2,.52-4-.72-5.48l-.17-.18c.78-.6,2.87-2.26,2-4.67a3.51,3.51,0,0,0-3.6-2.31,7.85,7.85,0,0,0-1.11.09c1.21-2.32,2.59-6.59,1-9.71l-.44-.84L57.31,75a29,29,0,0,0-6.1-2.48,4.58,4.58,0,0,0-.79-.08H48l-.54,2.33a3,3,0,0,0,.12,1.77M193.21,1.5a8.69,8.69,0,0,0-3.05.74C182,5.51,166.94,13.67,165.31,16.12c-.14.21-.25.3-.34.3-.74,0-.15-6.4-4.95-6.4a11.88,11.88,0,0,0-5.47,1.79c-11.72,6.46-1.92,8.16-5.34,13.5-3.19,5-10.26,11.15-13,11.15a1.36,1.36,0,0,1-.51-.09c-2.22-1,1.34-9.42,2.3-9.57s1.38-3.13-1.07-3.13h-.26c-2.75.23-3.94,3.79-3.94,4.82,0,.42-.48.65-1,.65a1.27,1.27,0,0,1-1.29-1.83c.56-1.62.2-3.53-.65-3.53-.28,0-.61.21-1,.71-1.48,2-10.16,9.64-12.68,15.28S109.3,62.7,107.3,63.07h-.12c-2,0-4.77-8.86-4.55-10.24s-.82-7.13-1.78-7.72-5,.3-11.06-3.86a2.54,2.54,0,0,0-2.52-1.55c-2,0-1.11,1.92-1.93,2.52a.77.77,0,0,1-.45.11c-.59,0-1.48-.34-2.29-.34A1.57,1.57,0,0,0,81,43.19c-.82,2.38-1.29,11-2.26,12.71s-2.34,4.6-2.21,6.16-.3,5.9-.93,5.9h0c-.65-.19-1.36-6.87-2.78-6.87-.8,0-1.47.49-2.36.49a4,4,0,0,1-2.7-1.39c-2.59-2.46-6.21-7.84-14.24-8.29-.7,0-1.39-.06-2.09-.06a47.22,47.22,0,0,0-20.13,4.72c-5.63,2.85-13.08,5.77-15.41,8s-9.72,10.36-11,12S-.46,83.83,3,84.34c0,0,1.92.21,4.21.21,2.52,0,5.51-.25,6.89-1.31a4.61,4.61,0,0,1,3-1c.71,0,1.34.11,1.86.11A1.15,1.15,0,0,0,20,81.92c.79-1.23,1-1.57,1-1.57s0,.78,1.46,1a1.12,1.12,0,0,0,.27,0c1.68,0,5.44-2,5.44-2s-1.32,6.77-.79,10.11-1.15,28.2-1.15,28.2-3,20.82-2.1,25.66S5.29,170.49,5.29,170.49s-5,4.48-3.51,5.27-.53,2.37.53,2.37c.33,0,1.07,0,1.93,0C6.08,178.17,8.5,178,9,177l.09-.17c.09,0-2.9,7.55-2.9,7.55s.22,0,.57,0c1.23,0,4-.22,4.53-2.13.61-2.46,3-12.12,5-14.41s8.69-3.78,11-6.15,5.18-9.84,5.18-9.84a16.71,16.71,0,0,0,4.67-2.24,4,4,0,0,1,.58-1.2s.05.09,0,.28a1.55,1.55,0,0,1-.6.92c-.51,1.3-1.15,3.21-1.15,3.21s-1.15.53-1.1.53.7-.28,2.87-1.24c5.17-2.28,16.68-13.79,17.91-15.81s7.73-13.62,9.14-15.11,6-5.89,6.5-7.91c0-.06,0-.08,0-.08.68,0,4.39,33.85,9.17,38,0,0,.68,1,1.45,1s1.48-.83,1.89-4c.54-4.06,1.49-4.35,2.44-4.35h.47a1.3,1.3,0,0,0,1.22-.57c1.23-1.76,4-3.08,4.31-8.7s1-21.79,1.14-24.6.88-20,.79-21.7v-.12c.11,0,2.4,17.89,9.31,18.77a17.79,17.79,0,0,0,2.24.16c5.35,0,3.19-3.54,4.53-4.41s3.87-.61,4.3-1.49-.08-8.87,1.15-10.45,3.49-9.27,4.92-9.27a.33.33,0,0,1,.17,0c1.41.7-2,6.85-1.49,8.61s1.41,5.45,1.23,7c0,0,.23,10.89-.58,11.63s-2.3,1-2.08,2.3-.82,3.12.15,3.41,4,3.64,4.82,6.31,4.23,9.79,3.71,22c0,0,.17,2.62,1.06,2.62.44,0,1-.62,1.9-2.47,2.6-5.64-.14-14.61.6-15.21a.29.29,0,0,1,.19-.06c1,0,3.74,3.46,3.74,5.26a.91.91,0,0,0,1,1,3.85,3.85,0,0,0,2.86-1.77c.89-1.55,1.85-9.27,1.85-11.49s-2-12-1.7-12.84c0,0,1.59,3.25,2.13,3.25.09,0,.15-.1.17-.35.07-1.64.66-19.74,0-22.78s-2.53-8.38-2.23-10.31,2.7-7.79,2.54-8.46S137.49,66,138.16,64,144.54,57,144.54,57s-.89,11,0,12.09,3.19,2.82,3.26,5.34-3.26,2.9-2.15,6.16,3.71,6.23,3.34,8.6-4,6.31-2.45,9.2,3.41,5.86,2.9,7.12-3.05,3.27-1.49,5.94c.72,1.23,1.11,1.56,1.32,1.56s.25-.45.25-.45,2.29,6.46,1.18,9.72,5,7.79,5.86,7.79,1.18-2.08,1.85-2.08,2.67-1.26,2.67-2.37,2.52-1.11,2.45-2.52,2.52-5.49,2.74-6.68,2.75.22,2.75-1.78,2.22-2.75,1.93-5.86-1.63-11.87-1.49-16.1-1.18-16.62-1.63-18.77-1.41-5.71-1.41-7,.45-11.58.45-11.58a11.5,11.5,0,0,1-1-7c.75-3.78,4.88-6.08,5.08-8.31s-.33-5,4.27-7.86,17.95-11.13,20-17.73c1.53-5.05,2.37-7.63,1-7.63a4.69,4.69,0,0,0-1.95.73s2.88-6-1-6ZM47.74,79.76c2,0,4.74-1.23,5.11-2.14.45-1.08-2.91-2.16-2.43-2.16l.28,0a30.23,30.23,0,0,1,5.23,2.18c1.1,2.12-.31,5.89-1.25,7.46-.83,1.39-1.3,5.4-.42,5.4a.71.71,0,0,0,.42-.22,7.58,7.58,0,0,1,4-1.4c.94,0,1.24.44-.32,1.63-3.15,2.41-2.89,4.63-1.88,4.63a.73.73,0,0,0,.34-.08,2.43,2.43,0,0,1,.88-.25c.63,0,.86.73.46,3.24-.55,3.45-11.46,18.75-11.46,18.75L46.2,79.33a2.43,2.43,0,0,0,1.54.43Z" transform="translate(-1.5 -1.5)"/></g></g></svg>