<svg xmlns="http://www.w3.org/2000/svg" viewBox="0 0 101.9 74.9"><defs><style>.cls-1{fill:#fff;}.cls-2,.cls-3{fill:none;stroke:#fff;stroke-miterlimit:10;}.cls-3{stroke-dasharray:12.7 12.7;}</style></defs><title>Asset 25</title><g id="Layer_2" data-name="Layer 2"><g id="Layer_1-2" data-name="Layer 1"><path class="cls-1" d="M.6,3.45A242.71,242.71,0,0,1,25.83.74Q38.43,0,51.05,0T76.28.74A242.81,242.81,0,0,1,101.5,3.45v3A237.48,237.48,0,0,1,76.28,9.16c-8.41.51-16.82.74-25.23.74s-16.82-.23-25.22-.74A237.38,237.38,0,0,1,.6,6.45Z"/><path class="cls-1" d="M.6,68.45a242.71,242.71,0,0,1,25.23-2.71Q38.43,65,51.05,65t25.23.74a242.81,242.81,0,0,1,25.22,2.71v3a237.48,237.48,0,0,1-25.22,2.71c-8.41.51-16.82.74-25.23.74s-16.82-.23-25.22-.74A237.38,237.38,0,0,1,.6,71.45Z"/><path class="cls-1" d="M.6,34.45a240,240,0,0,1,25.23-2.71Q38.43,31,51.05,31t25.23.74a240.12,240.12,0,0,1,25.22,2.71v3a237.48,237.48,0,0,1-25.22,2.71c-8.41.51-16.82.74-25.23.74s-16.82-.23-25.22-.74A237.38,237.38,0,0,1,.6,37.45Z"/><path class="cls-2" d="M94.9,20.45h0"/><path class="cls-3" d="M82.21,20.45H12.35"/><path class="cls-2" d="M6,20.45H6"/><path class="cls-3" d="M18.69,20.45H88.55"/><path class="cls-2" d="M95.9,54.45h0"/><path class="cls-3" d="M83.21,54.45H13.35"/><path class="cls-2" d="M7,54.45H7"/><path class="cls-3" d="M19.69,54.45H89.55"/></g></g></svg>