<svg xmlns="http://www.w3.org/2000/svg" viewBox="0 0 39.86 30.19"><defs><style>.cls-1{fill:#fff;}</style></defs><title>Asset 15</title><g id="Layer_2" data-name="Layer 2"><g id="Layer_1-2" data-name="Layer 1"><path class="cls-1" d="M.19,15.67a14.54,14.54,0,0,1,2.14-1.6,19.25,19.25,0,0,1,2.38-1.25A20.24,20.24,0,0,1,10,11.31a17.91,17.91,0,0,1,5.61.07,16.87,16.87,0,0,1,2.79.74c.45.17.89.36,1.33.56l1.1.51a26.86,26.86,0,0,0,9,2.3,26,26,0,0,0,4.75-.05c.79-.08,1.59-.2,2.38-.36A9.37,9.37,0,0,0,38,14.79a5.82,5.82,0,0,0,1.07-.39l.09,0a.46.46,0,0,1,.62.23.46.46,0,0,1-.06.49,7.48,7.48,0,0,1-2.2,1.74A15.32,15.32,0,0,1,35.08,18a20,20,0,0,1-5.32,1.13A22.48,22.48,0,0,1,19,17.17l-1.2-.57c-.33-.16-.66-.29-1-.44a15.92,15.92,0,0,0-2.09-.67A19,19,0,0,0,10.23,15a26.2,26.2,0,0,0-4.71.43A31.61,31.61,0,0,0,.77,16.64h0a.57.57,0,0,1-.57-1Z"/><path class="cls-1" d="M.84,28a16.53,16.53,0,0,1,4.45-2.41,23.29,23.29,0,0,1,2.47-.72,19.94,19.94,0,0,1,2.56-.35,15.23,15.23,0,0,1,5.23.55,11,11,0,0,1,1.26.43l.62.26.57.27a19.74,19.74,0,0,0,2.13.86,23.07,23.07,0,0,0,4.54,1,23,23,0,0,0,2.35.17c.79,0,1.58,0,2.38,0a38.45,38.45,0,0,0,4.76-.51c.79-.13,1.57-.3,2.35-.49.39-.1.77-.21,1.15-.34a5.25,5.25,0,0,0,1-.44l0,0a.25.25,0,0,1,.35.08.25.25,0,0,1,0,.32,4.83,4.83,0,0,1-1.08.78c-.37.21-.75.39-1.14.57a22.16,22.16,0,0,1-2.35.88A28.73,28.73,0,0,1,29.56,30a25.43,25.43,0,0,1-5.09.16,21.64,21.64,0,0,1-5.08-.93,17.53,17.53,0,0,1-2.43-1L16.42,28l-.51-.22a11.16,11.16,0,0,0-1.05-.39,14.94,14.94,0,0,0-4.48-.71,23,23,0,0,0-9.21,1.91h0a.31.31,0,0,1-.41-.17A.32.32,0,0,1,.84,28Z"/><path class="cls-1" d="M.84,3.51A16.81,16.81,0,0,1,5.29,1.1,21.11,21.11,0,0,1,7.76.39,18.34,18.34,0,0,1,10.32,0a15.48,15.48,0,0,1,5.23.55c.43.12.85.27,1.26.43.21.09.42.17.62.27l.57.26a19.74,19.74,0,0,0,2.13.86,23.83,23.83,0,0,0,4.54,1c.78.09,1.56.14,2.35.16s1.58,0,2.38,0A38.43,38.43,0,0,0,34.16,3c.79-.13,1.57-.31,2.35-.5.39-.1.77-.21,1.15-.33a4.72,4.72,0,0,0,1-.45l0,0a.25.25,0,0,1,.35.09.24.24,0,0,1,0,.31A4.53,4.53,0,0,1,38,2.92a12.12,12.12,0,0,1-1.14.57,22.22,22.22,0,0,1-2.35.89,27.79,27.79,0,0,1-4.93,1.07,25.43,25.43,0,0,1-5.09.16,21.14,21.14,0,0,1-5.08-.93,17.53,17.53,0,0,1-2.43-1l-.54-.25c-.17-.09-.34-.16-.51-.23-.35-.14-.7-.28-1.05-.39a15.26,15.26,0,0,0-4.48-.71A23.32,23.32,0,0,0,1.17,4.05h0a.31.31,0,0,1-.41-.16A.34.34,0,0,1,.84,3.51Z"/></g></g></svg>