<svg xmlns="http://www.w3.org/2000/svg" viewBox="0 0 92.22 81"><defs><style>.cls-1{fill:#fff;}.cls-2{fill:none;stroke:#fff;stroke-miterlimit:10;stroke-width:3px;}</style></defs><title>Asset 26</title><g id="Layer_2" data-name="Layer 2"><g id="Layer_1-2" data-name="Layer 1"><path class="cls-1" d="M48.27,28.13c2.9,6.79,7.21,11.69,12.75,14.49A27.57,27.57,0,0,0,48,54.29a26.55,26.55,0,0,0-2.58-4.47A23.35,23.35,0,0,0,36,42.06,24.86,24.86,0,0,0,48.27,28.13m-.27-12C46.82,22,46.23,41.74,21,42.38H22c22,0,25.39,16.38,26,24.5-.59-8.26,5.3-22.13,25.36-24.49C53.3,42.38,49.18,23.21,48,16.13ZM21,42.38h0Z"/><path class="cls-1" d="M75,56.54a19.9,19.9,0,0,0,6.74,7.69,19.76,19.76,0,0,0-6.87,6.2,17.26,17.26,0,0,0-6.43-6.54A17.53,17.53,0,0,0,75,56.54M74.72,46c-.81,4.06-1.22,17.66-18.64,18.11h.73C72,64.1,74.32,75.4,74.72,81c-.41-5.7,3.66-15.26,17.5-16.89-13.84,0-16.69-13.23-17.5-18.11ZM56.08,64.11h0Z"/><path class="cls-1" d="M19,10.54a19.9,19.9,0,0,0,6.74,7.69,19.76,19.76,0,0,0-6.87,6.2,17.26,17.26,0,0,0-6.43-6.54A17.53,17.53,0,0,0,19,10.54M18.72,0C17.91,4.06,17.5,17.66.08,18.11H.81C16,18.1,18.32,29.4,18.72,35c-.41-5.7,3.66-15.26,17.5-16.89C22.38,18.11,19.53,4.88,18.72,0ZM.08,18.11h0Z"/><line class="cls-2" x1="6.36" y1="36.5" x2="9.36" y2="36.5"/><line class="cls-2" x1="19.36" y1="51.5" x2="22.36" y2="51.5"/><line class="cls-2" x1="15.36" y1="63.5" x2="18.36" y2="63.5"/><line class="cls-2" x1="34.36" y1="56.5" x2="37.36" y2="56.5"/><line class="cls-2" x1="67.36" y1="17.5" x2="70.36" y2="17.5"/><line class="cls-2" x1="36.36" y1="7.5" x2="39.36" y2="7.5"/><line class="cls-2" x1="73.36" y1="27.5" x2="76.36" y2="27.5"/><line class="cls-2" x1="59.36" y1="22.5" x2="62.36" y2="22.5"/><line class="cls-2" x1="54.36" y1="11.5" x2="57.36" y2="11.5"/><line class="cls-2" x1="86.36" y1="41.5" x2="89.36" y2="41.5"/><line class="cls-2" x1="37.36" y1="71.5" x2="40.36" y2="71.5"/></g></g></svg>